<svg id="flat" height="512" viewBox="0 0 512 512" width="512" xmlns="http://www.w3.org/2000/svg"><path d="m384 304-16-24h-48l-16 24v32h80z" fill="#ffbfa1"/><path d="m248 488h-208v-104l-16-16v-77.17109a32 32 0 0 1 16.45943-27.973l55.54057-30.85591 16-24h48l16 24 55.54057 30.85587a32 32 0 0 1 16.45943 27.97304z" fill="#718799"/><path d="m40 384 24 24h40l64-40 40-24h40v144h-208z" fill="#62798c"/><path d="m488 400-56 24v64h-216v-81.14l-16-6.86 26.87-53.73a31.97439 31.97439 0 0 1 15.62-14.93l13.51-6 24.99-11.11 23.01-10.23 12.69 12.68994a38.62859 38.62859 0 0 0 54.62 0l12.69-12.68994 23.01 10.23 24.99 11.11 13.51 6a31.97439 31.97439 0 0 1 15.62 14.93z" fill="#d1e4ff"/><path d="m400 168v64a56 56 0 0 1 -55.99994 56h-.00012a56 56 0 0 1 -55.99994-56v-64z" fill="#ffceb6"/><path d="m336 256h-8v-16h8a8.00917 8.00917 0 0 0 8-8v-8h16v8a24.0275 24.0275 0 0 1 -24 24z" fill="#c78869"/><circle cx="320" cy="208" fill="#b1712c" r="8"/><circle cx="368" cy="208" fill="#b1712c" r="8"/><path d="m400 144h-112a47.94823 47.94823 0 0 1 48-48h16a48.00395 48.00395 0 0 1 48 48z" fill="#ffc431"/><path d="m288 144-8 16a16 16 0 0 0 16 16h96a16 16 0 0 0 16-16l-8-16z" fill="#ffb401"/><path d="m336 96v32h-16v-29.27a47.87293 47.87293 0 0 1 16-2.73z" fill="#ffb401"/><path d="m368 98.73v45.27h-16v-48a47.87293 47.87293 0 0 1 16 2.73z" fill="#ffb401"/><path d="m152 336-17.778 7.111-54.222.889v-24h96v16z" fill="#62798c"/><path d="m432 325.34v162.66h-176v-162.66l24.99-11.11 31.01 69.77h64l31.01-69.77z" fill="#f78e00"/><path d="m232 432h-96l-16 24 24 32h88z" fill="#ffceb6"/><path d="m176 232-32 57.6-8 14.4-8-14.4-32-57.6 16-24h48z" fill="#d1e4ff"/><path d="m144 208v81.6l-8 14.4-8-14.4v-81.6z" fill="#bdd1f2"/><g fill="#ffceb6"><path d="m152 336 16-24h40v32l-40 24z"/><path d="m134.222 343.111-46.222-23.111h-24v32h48z"/><path d="m192 96v64a56 56 0 0 1 -55.99994 56h-.00006a56 56 0 0 1 -56-56v-64z"/></g><path d="m128 184h-8v-16h8a8.00917 8.00917 0 0 0 8-8v-8h16v8a24.0275 24.0275 0 0 1 -24 24z" fill="#c78869"/><circle cx="112" cy="136" fill="#b1712c" r="8"/><circle cx="160" cy="136" fill="#b1712c" r="8"/><path d="m192 72h-112a47.94823 47.94823 0 0 1 48-48h16a48.00395 48.00395 0 0 1 48 48z" fill="#ffc431"/><path d="m80 72-8 16a16 16 0 0 0 16 16h96a16 16 0 0 0 16-16l-8-16z" fill="#ffb401"/><path d="m128 24v32h-16v-29.27a47.873 47.873 0 0 1 16-2.73z" fill="#ffb401"/><path d="m160 26.73v45.27h-16v-48a47.87293 47.87293 0 0 1 16 2.73z" fill="#ffb401"/><path d="m368 432v56h-160l-96-112 70.04 31.84 17.96 8.16 6.92-4.26 97.08-59.74z" fill="#548aff"/><path d="m274.7 488h-21.41l-71.25-80.16 17.96 8.16 6.92-4.26z" fill="#4976f2"/><path d="m432 424v16l-32 16-24-24h-24l-16 24 24 32h96l32-24-16.291-57.018z" fill="#ffceb6"/></svg>